<svg xmlns="http://www.w3.org/2000/svg" viewBox="0 0 24 24" fill="none" stroke="#191717" stroke-width="1.5" stroke-linecap="round" stroke-linejoin="round">
  <path d="M9 19c-5 1.5-5-2.5-7-3m14 6v-3.87a3.37 3.37 0 0 0-.94-2.61c3.14-.35 6.44-1.54 6.44-7 0-1.4-.5-2.55-1.32-3.45a4.93 4.93 0 0 0-.09-3.42S17.91 3 15 5.1a12.38 12.38 0 0 0-6 0C6.09 3 3.01 1.65 3.01 1.65a4.93 4.93 0 0 0-.09 3.42C2.1 6.94 1.6 8.09 1.6 9.49c0 5.42 3.3 6.61 6.44 7-.41.37-.78 1.02-.91 1.98-1 .45-3.56 1.21-3.56-2.37" />
</svg>
