<svg width="36" height="33" viewBox="0 0 36 33" fill="none" xmlns="http://www.w3.org/2000/svg">
<path d="M17.7862 2.92867C22.5385 2.92867 23.1012 2.94773 24.9702 3.02396C26.7071 3.09384 27.6451 3.36066 28.2704 3.58301C29.0972 3.87524 29.6947 4.231 30.313 4.79641C30.9383 5.36817 31.3204 5.90816 31.64 6.66415C31.8832 7.23591 32.175 8.09989 32.2514 9.68176C32.3348 11.397 32.3556 11.9116 32.3556 16.2506C32.3556 20.596 32.3348 21.1106 32.2514 22.8195C32.175 24.4077 31.8832 25.2653 31.64 25.8371C31.3204 26.5931 30.9314 27.1394 30.313 27.7048C29.6877 28.2766 29.0972 28.626 28.2704 28.9182C27.6451 29.1406 26.7002 29.4074 24.9702 29.4773C23.0943 29.5535 22.5315 29.5726 17.7862 29.5726C13.034 29.5726 12.4712 29.5535 10.6023 29.4773C8.86532 29.4074 7.92738 29.1406 7.30208 28.9182C6.4753 28.626 5.87779 28.2702 5.25944 27.7048C4.63414 27.1331 4.25202 26.5931 3.93242 25.8371C3.68925 25.2653 3.39745 24.4013 3.32102 22.8195C3.23765 21.1042 3.21681 20.5896 3.21681 16.2506C3.21681 11.9053 3.23765 11.3907 3.32102 9.68176C3.39745 8.09354 3.68925 7.23591 3.93242 6.66415C4.25202 5.90816 4.64109 5.36181 5.25944 4.79641C5.88474 4.22465 6.4753 3.87524 7.30208 3.58301C7.92738 3.36066 8.87227 3.09384 10.6023 3.02396C12.4712 2.94773 13.034 2.92867 17.7862 2.92867ZM17.7862 0C12.9575 0 12.3531 0.0190586 10.4564 0.0952929C8.56657 0.171527 7.26734 0.451053 6.14181 0.851283C4.96764 1.27057 3.97411 1.82327 2.98753 2.73173C1.994 3.63384 1.38955 4.54229 0.930998 5.60957C0.49329 6.64509 0.187589 7.82672 0.104216 9.5547C0.0208432 11.2954 0 11.8481 0 16.2633C0 20.6786 0.0208432 21.2313 0.104216 22.9656C0.187589 24.6936 0.49329 25.8815 0.930998 26.9107C1.38955 27.9843 1.994 28.8928 2.98753 29.7949C3.97411 30.697 4.96764 31.2561 6.13486 31.669C7.26734 32.0692 8.55962 32.3488 10.4494 32.425C12.3461 32.5012 12.9506 32.5203 17.7793 32.5203C22.608 32.5203 23.2124 32.5012 25.1091 32.425C26.9989 32.3488 28.2982 32.0692 29.4237 31.669C30.5909 31.2561 31.5844 30.697 32.571 29.7949C33.5576 28.8928 34.169 27.9843 34.6206 26.9171C35.0583 25.8815 35.364 24.6999 35.4474 22.9719C35.5308 21.2376 35.5516 20.6849 35.5516 16.2697C35.5516 11.8544 35.5308 11.3017 35.4474 9.56741C35.364 7.83943 35.0583 6.65144 34.6206 5.62228C34.1829 4.54229 33.5784 3.63384 32.5849 2.73173C31.5983 1.82962 30.6048 1.27057 29.4376 0.857636C28.3051 0.457406 27.0128 0.17788 25.123 0.101646C23.2194 0.0190586 22.6149 0 17.7862 0Z" fill="#000100"/>
<path d="M17.7862 7.90918C12.7421 7.90918 8.6499 11.651 8.6499 16.2632C8.6499 20.8754 12.7421 24.6172 17.7862 24.6172C22.8302 24.6172 26.9225 20.8754 26.9225 16.2632C26.9225 11.651 22.8302 7.90918 17.7862 7.90918ZM17.7862 21.6822C14.5138 21.6822 11.8598 19.2554 11.8598 16.2632C11.8598 13.271 14.5138 10.8442 17.7862 10.8442C21.0586 10.8442 23.7126 13.271 23.7126 16.2632C23.7126 19.2554 21.0586 21.6822 17.7862 21.6822Z" fill="#000100"/>
</svg>
