<svg width="36" height="33" viewBox="0 0 36 33" fill="none" xmlns="http://www.w3.org/2000/svg">
<path d="M32.9465 0H2.62594C1.9295 0 1.26158 0.252972 0.76912 0.703266C0.276661 1.15356 0 1.76429 0 2.4011V30.1255C0 30.7623 0.276661 31.3731 0.76912 31.8234C1.26158 32.2737 1.9295 32.5266 2.62594 32.5266H32.9465C33.6429 32.5266 34.3109 32.2737 34.8033 31.8234C35.2958 31.3731 35.5724 30.7623 35.5724 30.1255V2.4011C35.5724 1.76429 35.2958 1.15356 34.8033 0.703266C34.3109 0.252972 33.6429 0 32.9465 0ZM10.6026 27.7086H5.25435V12.1749H10.6026V27.7086ZM7.92475 10.0223C7.31809 10.0191 6.72603 9.85177 6.2233 9.54127C5.72057 9.23076 5.3297 8.79104 5.10002 8.27761C4.87033 7.76417 4.81213 7.20003 4.93276 6.65638C5.05338 6.11273 5.34743 5.61393 5.77779 5.22294C6.20815 4.83195 6.75553 4.56629 7.35085 4.45948C7.94617 4.35268 8.56275 4.40952 9.12278 4.62283C9.68281 4.83614 10.1612 5.19636 10.4975 5.65803C10.8339 6.11969 11.0131 6.66212 11.0126 7.21685C11.0184 7.58824 10.9422 7.95688 10.7888 8.3008C10.6354 8.64473 10.4079 8.95689 10.1197 9.21868C9.83157 9.48048 9.48873 9.68654 9.11162 9.8246C8.73452 9.96266 8.33087 10.0299 7.92475 10.0223ZM30.3156 27.7222H24.9699V19.2359C24.9699 16.7331 23.8064 15.9606 22.3044 15.9606C20.7185 15.9606 19.1622 17.0539 19.1622 19.2991V27.7222H13.814V12.1862H18.9572V14.3388H19.0263C19.5426 13.3834 21.3509 11.7502 24.1102 11.7502C27.0943 11.7502 30.3181 13.3698 30.3181 18.1133L30.3156 27.7222Z" fill="#0A66C2"/>
</svg>
