<svg xmlns="http://www.w3.org/2000/svg" viewBox="0 0 24 24" fill="none" stroke="#191717" stroke-width="1.5" stroke-linecap="round" stroke-linejoin="round">
  <path d="M3 9.6c0-1.8 0-2.7.35-3.4a3 3 0 0 1 1.25-1.25C5.27 4.6 6.17 4.6 7.95 4.6h8.1c1.78 0 2.67 0 3.35.35a3 3 0 0 1 1.25 1.25c.35.68.35 1.57.35 3.35v4.8c0 1.78 0 2.67-.35 3.35a3 3 0 0 1-1.25 1.25c-.68.35-1.57.35-3.35.35H7.95c-1.78 0-2.67 0-3.35-.35a3 3 0 0 1-1.25-1.25C3 16.27 3 15.38 3 13.6V9.6Z" />
  <path d="m10 9 5 3-5 3V9Z" />
</svg>
